<svg width="48" height="49" viewBox="0 0 48 49" fill="none" xmlns="http://www.w3.org/2000/svg">
<g id="Group">
<g id="Group_2">
<g id="Group_3">
<path id="Vector" d="M24.0023 45.3724L33.5113 42.9711C38.939 38.4642 42.3961 31.6662 42.3961 24.06C42.3961 12.3277 34.1732 2.51613 23.1762 0.0738525C10.3028 0.508009 0 11.0808 0 24.0599C0 30.7266 2.71875 36.7579 7.10737 41.107L24.0023 45.3724Z" fill="#CBE2FF"/>
</g>
<g id="Group_4">
<path id="Vector_2" d="M41.8983 24.0607C41.8983 31.9277 38.1126 38.9098 32.2641 43.2868L40.892 41.108C45.2809 36.7589 48.0002 30.7276 48.0002 24.0607C48.0002 10.8058 37.255 0.0606689 24.0001 0.0606689C22.9666 0.0606689 21.9483 0.126106 20.9492 0.252856C32.7635 1.75173 41.8983 11.8394 41.8983 24.0607Z" fill="#BED8FB"/>
</g>
<g id="Group_5">
<g id="Group_6">
<g id="Group_7">
<path id="Vector_3" d="M29.9645 9.14986C29.9645 7.92408 28.9708 6.93042 27.745 6.93042H20.0967C17.2757 6.93042 14.9888 9.21736 14.9888 12.0384V17.7096H33.0084V12.1188C33.0084 10.893 32.0147 9.89939 30.7889 9.89939H30.7141C30.3001 9.89939 29.9645 9.56386 29.9645 9.14986Z" fill="#3C51AE"/>
<path id="Vector_4" d="M30.7892 9.89936H30.7144C30.3004 9.89936 29.9648 9.56374 29.9648 9.14974C29.9648 7.92395 28.9711 6.9303 27.7453 6.9303H26.9067V17.7095H33.0086V12.1187C33.0086 10.8931 32.0149 9.89936 30.7892 9.89936Z" fill="#2D429F"/>
<path id="Vector_5" d="M39.8479 34.9689C39.2611 34.3893 38.5353 33.9411 37.7113 33.6803L31.1591 31.6058L24.0014 31.3542L16.8408 31.6058L10.2885 33.6803C8.0719 34.3821 6.56543 36.4392 6.56543 38.7642V40.5543C10.7644 44.9913 16.639 47.8263 23.1763 48.0468C30.5008 46.42 36.5947 41.5241 39.8479 34.9689Z" fill="#5B70CD"/>
<path id="Vector_6" d="M41.4339 40.5543V38.7642C41.4339 37.1202 40.6801 35.6109 39.4553 34.6193C35.9761 41.7092 29.1032 46.8319 20.9541 47.8677C21.9377 47.9923 22.9395 48.0588 23.9565 48.0606C24.9337 48.0591 25.8979 48.0024 26.8463 47.8935C32.5679 47.2174 37.673 44.5284 41.4339 40.5543Z" fill="#4C61BE"/>
<path id="Vector_7" d="M24.5433 47.7013C25.9954 44.8184 29.7767 36.6325 28.6984 31.5192L24.0015 29.6912L19.3001 31.5193C18.1886 36.7904 22.241 45.3265 23.5827 47.9527C23.9054 47.8753 24.2257 47.7914 24.5433 47.7013Z" fill="#E4F6FF"/>
<path id="Vector_8" d="M27.0182 45.4158L25.1138 37.9236H22.8856L20.9858 45.3954L23.335 48.0107C23.9314 47.8741 24.5195 47.7158 25.0985 47.5366L27.0182 45.4158Z" fill="#D5B9A7"/>
<path id="Vector_9" d="M23.3717 48.0516C23.5663 48.0567 23.7612 48.0601 23.9568 48.0605C24.1832 48.0601 24.4089 48.0562 24.6339 48.0499L25.8439 46.7131C24.8915 47.0473 23.9117 47.3231 22.9087 47.5362L23.3717 48.0516Z" fill="#C19E7A"/>
<g id="Group_8">
<g id="Group_9">
<g id="Group_10">
<g id="Group_11">
<g id="Group_12">
<g id="Group_13">
<g id="Group_14">
<g id="Group_15">
<path id="Vector_10" d="M28.0095 30.8277V26.6028H19.9863V30.8277C19.9863 33.0432 23.9979 35.4633 23.9979 35.4633C23.9979 35.4633 28.0095 33.0432 28.0095 30.8277Z" fill="#FFDDCE"/>
</g>
</g>
</g>
</g>
</g>
</g>
</g>
<path id="Vector_11" d="M33.0084 16.9654H31.4747C30.6218 16.9654 29.9304 16.274 29.9304 15.421V14.5759C29.9304 13.4649 28.8433 12.6793 27.7885 13.028C25.3282 13.8412 22.6717 13.8414 20.2113 13.0285L20.2084 13.0276C19.1535 12.6791 18.0667 13.4647 18.0667 14.5756V15.4211C18.0667 16.2741 17.3753 16.9655 16.5223 16.9655H14.9888V19.4909C14.9888 20.1362 15.5119 20.6594 16.1573 20.6594C16.3609 20.6594 16.5266 20.8189 16.5394 21.0221C16.7858 24.9285 20.0302 28.0209 23.9986 28.0209C27.9671 28.0209 31.2115 24.9285 31.4578 21.0221C31.4707 20.819 31.6363 20.6594 31.84 20.6594C32.4852 20.6594 33.0085 20.1363 33.0085 19.4909V16.9654H33.0084Z" fill="#FFDDCE"/>
<path id="Vector_12" d="M31.474 16.9653C30.6211 16.9653 29.9297 16.2739 29.9297 15.421V14.5758C29.9297 13.4648 28.8426 12.6793 27.7878 13.0279C27.4964 13.1242 27.2021 13.2082 26.9059 13.2817V21.6228C26.8648 24.3367 25.3777 26.6987 23.1816 27.9752C23.4499 28.0043 23.7219 28.0207 23.9978 28.0207C27.9663 28.0207 31.2107 24.9283 31.4571 21.0219C31.4699 20.8187 31.6356 20.6592 31.8392 20.6592C32.4845 20.6592 33.0077 20.1361 33.0077 19.4907V16.9652H31.474V16.9653Z" fill="#FFCBBE"/>
</g>
<g id="Group_16">
<path id="Vector_13" d="M19.9864 29.6912L16.8403 32.2474L20.1396 36.3268C20.5409 36.7175 21.1726 36.7415 21.6025 36.3825L24.0836 34.3099L19.9864 29.6912Z" fill="#F4FBFF"/>
<path id="Vector_14" d="M28.0114 29.6912L24.084 34.3099L26.4159 36.3038C26.8431 36.6691 27.4778 36.6507 27.8832 36.2613L31.1588 32.2474L28.0114 29.6912Z" fill="#F4FBFF"/>
</g>
</g>
<path id="Vector_15" d="M19.9865 29.6912L15.3688 31.9598C15.0172 32.1325 14.876 32.5602 15.0556 32.9083L15.9602 34.6623C16.1947 35.1168 16.1082 35.6707 15.7463 36.032C15.56 36.2179 15.3583 36.4193 15.1834 36.5939C14.8705 36.9063 14.7581 37.3678 14.8959 37.788C15.9882 41.1177 21.2451 46.2093 23.2346 48.0515C23.3684 48.0551 23.5024 48.0575 23.6368 48.059C22.1941 45.2528 17.0816 34.5914 19.9865 29.6912Z" fill="#3C51AE"/>
<path id="Vector_16" d="M32.252 36.0319C31.8901 35.6706 31.8036 35.1168 32.0381 34.6623L32.9428 32.9082C33.1223 32.5601 32.9811 32.1324 32.6296 31.9597L28.0118 29.6912C30.916 34.5901 25.8071 45.247 24.3628 48.0568C24.4985 48.0544 24.634 48.0511 24.7692 48.0466C26.7628 46.2002 32.0112 41.1147 33.1024 37.7881C33.2403 37.3679 33.1279 36.9064 32.8149 36.594C32.6401 36.4193 32.4383 36.2179 32.252 36.0319Z" fill="#3C51AE"/>
<path id="Vector_17" d="M24.0842 34.3099L21.6411 36.3503L22.8859 37.9235H25.1141L26.359 36.2575L24.0842 34.3099Z" fill="#C19E7A"/>
</g>
</g>
</g>
</g>
</svg>
