<svg width="155" height="69" viewBox="0 0 155 69" fill="none" xmlns="http://www.w3.org/2000/svg">
<path fill-rule="evenodd" clip-rule="evenodd" d="M99.5439 46.0412L95.3841 46.0363C95.4841 42.0559 95.4019 37.9638 95.4019 33.9606C95.4019 31.9776 95.4044 29.9942 95.4053 28.0112C95.4092 21.063 96.0541 22.1087 92.5938 22.113L92.7035 36.5212L62.7109 36.5585L62.6379 22.1038L59.8955 22.1096L59.9134 45.9329L62.6167 45.9131L62.2033 40.2025L61.076 39.9095L61.0407 37.4924L94.221 37.5238L94.3041 39.9085L92.7224 40.0516L92.6963 45.4596L87.1389 45.4591L87.1317 40.1493L85.9367 40.1652L85.8675 45.5892L69.5469 45.5046C69.4062 43.9963 69.9699 41.2834 69.2032 40.1464L68.4597 40.143C67.7578 41.4415 68.3688 43.9422 68.1416 45.551L62.6544 45.5075C62.8178 47.11 62.9488 47.1956 62.5108 47.8873C61.8016 47.5717 62.2275 48.2789 62.0443 46.0571L10.5576 46.0354L10.3806 47.7085C10.3574 47.7815 10.2719 47.969 10.2496 48.029C10.166 48.2552 10.0896 48.0589 10.1075 48.4423C21.3532 48.5733 32.6647 48.4457 43.9191 48.4631C47.5568 48.4689 59.0022 47.9908 61.7016 48.597C62.0709 48.6796 61.8326 48.7014 62.5432 48.8082L92.2651 48.8585C93.6322 48.7923 93.1589 48.6279 94.2514 48.4863C96.3026 48.2194 100.402 48.4597 102.668 48.4621L145.171 48.465C145.182 48.1426 145.099 48.1948 145.049 48.0251L144.739 46.1064C144.734 46.1055 144.318 46.031 144.257 46.001C143.756 45.7535 144.005 45.8918 143.667 45.6104L143.679 22.2329L140.942 22.1353L140.899 46.0397L136.581 46.0267L136.654 22.1382L134.01 22.1502L133.966 46.045L129.768 46.0325L129.789 22.2339L127.068 22.1406L127.031 46.0387L122.899 46.0358L122.923 22.1763L120.293 22.1261L120.239 46.0151L115.967 46.0305L116.028 22.1778L113.247 22.173L113.249 46.0368L109.076 46.0296L109.129 22.1411L106.489 22.1498L106.448 46.0474L102.276 46.032L102.304 22.2189L99.5695 22.1444L99.5443 46.0407L99.5439 46.0412Z" fill="#081B45"/>
<path fill-rule="evenodd" clip-rule="evenodd" d="M69.0345 34.4246C68.9446 31.5681 68.728 22.156 69.3956 20.0502C72.1327 11.4121 83.7685 11.8423 86.1967 20.2049C86.7696 22.1782 86.5139 31.7156 86.4578 34.4778L69.0345 34.4246ZM76.6406 10.3906L76.6478 11.9462C72.4846 12.6835 70.2488 14.7167 68.6947 18.0789C67.8961 19.8056 68.1566 20.4167 67.7148 22.0061C66.2476 22.172 63.9026 21.6745 62.7515 22.3097C63.4689 22.8855 66.4052 22.6476 67.6505 22.6525C64.6852 23.5971 62.7279 21.0635 62.7332 24.3256C64.0979 24.5397 66.6991 24.0104 67.6157 24.6466C68.2277 25.5926 67.7815 34.3308 67.825 36.3032L87.5353 36.2954L87.5252 24.3749C88.929 24.3613 91.7739 24.606 92.6242 24.0447L92.6073 22.724L92.6122 22.6447C92.3729 22.0646 92.7427 21.9496 90.5277 22.0037C88.7308 22.0477 87.9163 22.259 87.5295 21.6233C87.1868 16.6122 83.4553 12.4166 78.6845 12.0357C78.7236 9.62392 78.1227 11.0142 77.8423 9.66694C77.5383 6.72874 78.3388 7.24551 78.9948 7.10435C79.4333 7.01008 79.9017 6.93902 80.3464 6.93854C81.2408 6.93757 82.0273 7.29675 82.7514 7.52106L82.3584 4.47602C81.2253 4.21642 80.5756 4.25945 79.3612 4.13763C78.4708 4.04819 78.2924 3.9109 77.8946 3.44006C77.853 3.39075 77.6973 3.23315 77.6746 3.11907C77.6557 3.02577 77.606 3.00256 77.5557 2.94649L77.5518 10.2253L76.6401 10.3896L76.6406 10.3906Z" fill="#081B45"/>
<path fill-rule="evenodd" clip-rule="evenodd" d="M92.1176 19.9241L92.7398 20L92.7137 21.7088L144.864 21.6861L145.05 19.8342C145.132 19.5842 145.092 20.1774 145.235 19.3087L92.1945 19.3483L92.1176 19.9241Z" fill="#081B45"/>
<path fill-rule="evenodd" clip-rule="evenodd" d="M10.6049 21.6527L62.5848 21.7035C62.9217 18.9881 63.0164 20.3572 63.203 19.3483L10.0268 19.3058L10.4382 20.3823C10.5653 20.8367 10.5392 21.1655 10.6049 21.6527Z" fill="#081B45"/>
<path fill-rule="evenodd" clip-rule="evenodd" d="M70.4369 24.0447C70.4364 21.1524 70.7439 19.5528 72.3933 17.8202C76.6319 13.3689 85.0404 14.7839 85.0162 24.0447L84.9389 32.8458L70.4988 32.8216L70.4369 24.0447ZM69.0345 34.4246L86.4578 34.4778C86.5139 31.7156 86.7701 22.1782 86.1968 20.2049C83.7686 11.8423 72.1322 11.4121 69.3956 20.0502C68.7285 22.156 68.9446 31.5681 69.0345 34.4246Z" fill="#081B45"/>
<path fill-rule="evenodd" clip-rule="evenodd" d="M61.2873 39.9544L93.9387 39.9853L94.0078 37.5523L61.2858 37.574L61.2873 39.9544Z" fill="#081B45"/>
<path fill-rule="evenodd" clip-rule="evenodd" d="M11.7047 45.8419L14.3848 45.8917L14.4418 22.1806L11.7714 22.1671L11.7047 45.8419Z" fill="#081B45"/>
<path fill-rule="evenodd" clip-rule="evenodd" d="M39.3025 45.9005L41.9946 45.9024L42.0555 22.1522L39.419 22.1536L39.3025 45.9005Z" fill="#081B45"/>
<path fill-rule="evenodd" clip-rule="evenodd" d="M25.5822 45.8531L28.2453 45.8874L28.2966 22.1894L25.6484 22.1613L25.5822 45.8531Z" fill="#081B45"/>
<path fill-rule="evenodd" clip-rule="evenodd" d="M53.0484 45.8709L55.7091 45.8816L55.7507 22.1908L53.1321 22.1507L53.0484 45.8709Z" fill="#081B45"/>
<path fill-rule="evenodd" clip-rule="evenodd" d="M32.4249 45.9004L35.0324 45.9072L35.0972 22.1458L32.5225 22.156L32.4249 45.9004Z" fill="#081B45"/>
<path fill-rule="evenodd" clip-rule="evenodd" d="M18.708 45.8574L21.2841 45.9014L21.3339 22.1594L18.7505 22.1627L18.708 45.8574Z" fill="#081B45"/>
<path fill-rule="evenodd" clip-rule="evenodd" d="M46.2284 45.8617L48.8088 45.9067L48.8451 22.1594L46.2699 22.1598L46.2284 45.8617Z" fill="#081B45"/>
<path fill-rule="evenodd" clip-rule="evenodd" d="M76.7754 18.8407C74.659 20.0497 75.8381 23.8291 78.507 22.7443C80.8608 21.7876 79.3574 17.3648 76.7754 18.8407Z" fill="#081B45"/>
<path d="M9.53086 55.5718L7.23086 60.0018V62.5218H6.09086V60.0018L3.78086 55.5718H5.05086L6.66086 58.9818L8.27086 55.5718H9.53086ZM14.6255 61.1018H11.7155L11.2155 62.5218H10.0255L12.5155 55.5618H13.8355L16.3255 62.5218H15.1255L14.6255 61.1018ZM14.3055 60.1718L13.1755 56.9418L12.0355 60.1718H14.3055ZM23.1182 62.5218H21.9782L18.5482 57.3318V62.5218H17.4082V55.5618H18.5482L21.9782 60.7418V55.5618H23.1182V62.5218ZM29.6452 57.5718C29.4652 57.2251 29.2152 56.9651 28.8952 56.7918C28.5752 56.6118 28.2052 56.5218 27.7852 56.5218C27.3252 56.5218 26.9152 56.6251 26.5552 56.8318C26.1952 57.0384 25.9119 57.3318 25.7052 57.7118C25.5052 58.0918 25.4052 58.5318 25.4052 59.0318C25.4052 59.5318 25.5052 59.9751 25.7052 60.3618C25.9119 60.7418 26.1952 61.0351 26.5552 61.2418C26.9152 61.4484 27.3252 61.5518 27.7852 61.5518C28.4052 61.5518 28.9086 61.3784 29.2952 61.0318C29.6819 60.6851 29.9186 60.2151 30.0052 59.6218H27.3952V58.7118H31.2252V59.6018C31.1519 60.1418 30.9586 60.6384 30.6452 61.0918C30.3386 61.5451 29.9352 61.9084 29.4352 62.1818C28.9419 62.4484 28.3919 62.5818 27.7852 62.5818C27.1319 62.5818 26.5352 62.4318 25.9952 62.1318C25.4552 61.8251 25.0252 61.4018 24.7052 60.8618C24.3919 60.3218 24.2352 59.7118 24.2352 59.0318C24.2352 58.3518 24.3919 57.7418 24.7052 57.2018C25.0252 56.6618 25.4552 56.2418 25.9952 55.9418C26.5419 55.6351 27.1386 55.4818 27.7852 55.4818C28.5252 55.4818 29.1819 55.6651 29.7552 56.0318C30.3352 56.3918 30.7552 56.9051 31.0152 57.5718H29.6452ZM33.4896 55.5718V62.5218H32.3496V55.5718H33.4896ZM40.1363 55.5718L37.8363 60.0018V62.5218H36.6963V60.0018L34.3863 55.5718H35.6563L37.2663 58.9818L38.8763 55.5718H40.1363ZM44.211 62.5918C43.5643 62.5918 42.9677 62.4418 42.421 62.1418C41.881 61.8351 41.451 61.4118 41.131 60.8718C40.8177 60.3251 40.661 59.7118 40.661 59.0318C40.661 58.3518 40.8177 57.7418 41.131 57.2018C41.451 56.6618 41.881 56.2418 42.421 55.9418C42.9677 55.6351 43.5643 55.4818 44.211 55.4818C44.8643 55.4818 45.461 55.6351 46.001 55.9418C46.5477 56.2418 46.9777 56.6618 47.291 57.2018C47.6043 57.7418 47.761 58.3518 47.761 59.0318C47.761 59.7118 47.6043 60.3251 47.291 60.8718C46.9777 61.4118 46.5477 61.8351 46.001 62.1418C45.461 62.4418 44.8643 62.5918 44.211 62.5918ZM44.211 61.6018C44.671 61.6018 45.081 61.4984 45.441 61.2918C45.801 61.0784 46.081 60.7784 46.281 60.3918C46.4877 59.9984 46.591 59.5451 46.591 59.0318C46.591 58.5184 46.4877 58.0684 46.281 57.6818C46.081 57.2951 45.801 56.9984 45.441 56.7918C45.081 56.5851 44.671 56.4818 44.211 56.4818C43.751 56.4818 43.341 56.5851 42.981 56.7918C42.621 56.9984 42.3377 57.2951 42.131 57.6818C41.931 58.0684 41.831 58.5184 41.831 59.0318C41.831 59.5451 41.931 59.9984 42.131 60.3918C42.3377 60.7784 42.621 61.0784 42.981 61.2918C43.341 61.4984 43.751 61.6018 44.211 61.6018ZM49.0628 55.5718H50.3028L49.2528 57.9518H48.4528L49.0628 55.5718ZM52.4447 61.6018H54.7947V62.5218H51.3047V55.5718H52.4447V61.6018ZM60.6357 62.5918C60.169 62.5918 59.749 62.5118 59.3757 62.3518C59.0024 62.1851 58.709 61.9518 58.4957 61.6518C58.2824 61.3518 58.1757 61.0018 58.1757 60.6018H59.3957C59.4224 60.9018 59.539 61.1484 59.7457 61.3418C59.959 61.5351 60.2557 61.6318 60.6357 61.6318C61.029 61.6318 61.3357 61.5384 61.5557 61.3518C61.7757 61.1584 61.8857 60.9118 61.8857 60.6118C61.8857 60.3784 61.8157 60.1884 61.6757 60.0418C61.5424 59.8951 61.3724 59.7818 61.1657 59.7018C60.9657 59.6218 60.6857 59.5351 60.3257 59.4418C59.8724 59.3218 59.5024 59.2018 59.2157 59.0818C58.9357 58.9551 58.6957 58.7618 58.4957 58.5018C58.2957 58.2418 58.1957 57.8951 58.1957 57.4618C58.1957 57.0618 58.2957 56.7118 58.4957 56.4118C58.6957 56.1118 58.9757 55.8818 59.3357 55.7218C59.6957 55.5618 60.1124 55.4818 60.5857 55.4818C61.259 55.4818 61.809 55.6518 62.2357 55.9918C62.669 56.3251 62.909 56.7851 62.9557 57.3718H61.6957C61.6757 57.1184 61.5557 56.9018 61.3357 56.7218C61.1157 56.5418 60.8257 56.4518 60.4657 56.4518C60.139 56.4518 59.8724 56.5351 59.6657 56.7018C59.459 56.8684 59.3557 57.1084 59.3557 57.4218C59.3557 57.6351 59.419 57.8118 59.5457 57.9518C59.679 58.0851 59.8457 58.1918 60.0457 58.2718C60.2457 58.3518 60.519 58.4384 60.8657 58.5318C61.3257 58.6584 61.699 58.7851 61.9857 58.9118C62.279 59.0384 62.5257 59.2351 62.7257 59.5018C62.9324 59.7618 63.0357 60.1118 63.0357 60.5518C63.0357 60.9051 62.939 61.2384 62.7457 61.5518C62.559 61.8651 62.2824 62.1184 61.9157 62.3118C61.5557 62.4984 61.129 62.5918 60.6357 62.5918ZM69.9309 55.5718V62.5218H68.7909V59.4818H65.5209V62.5218H64.3809V55.5718H65.5209V58.5518H68.7909V55.5718H69.9309ZM75.6216 61.1018H72.7116L72.2116 62.5218H71.0216L73.5116 55.5618H74.8316L77.3216 62.5218H76.1216L75.6216 61.1018ZM75.3016 60.1718L74.1716 56.9418L73.0316 60.1718H75.3016ZM83.9543 55.5718V62.5218H82.8143V59.4818H79.5443V62.5218H78.4043V55.5718H79.5443V58.5518H82.8143V55.5718H83.9543ZM89.6451 61.1018H86.7351L86.2351 62.5218H85.0451L87.5351 55.5618H88.8551L91.3451 62.5218H90.1451L89.6451 61.1018ZM89.3251 60.1718L88.1951 56.9418L87.0551 60.1718H89.3251ZM96.0377 62.5218L94.4377 59.7418H93.5677V62.5218H92.4277V55.5718H94.8277C95.3611 55.5718 95.8111 55.6651 96.1777 55.8518C96.5511 56.0384 96.8277 56.2884 97.0077 56.6018C97.1944 56.9151 97.2877 57.2651 97.2877 57.6518C97.2877 58.1051 97.1544 58.5184 96.8877 58.8918C96.6277 59.2584 96.2244 59.5084 95.6777 59.6418L97.3977 62.5218H96.0377ZM93.5677 58.8318H94.8277C95.2544 58.8318 95.5744 58.7251 95.7877 58.5118C96.0077 58.2984 96.1177 58.0118 96.1177 57.6518C96.1177 57.2918 96.0111 57.0118 95.7977 56.8118C95.5844 56.6051 95.2611 56.5018 94.8277 56.5018H93.5677V58.8318ZM106.894 55.5718V62.5218H105.754V59.4818H102.484V62.5218H101.344V55.5718H102.484V58.5518H105.754V55.5718H106.894ZM111.565 62.5918C110.918 62.5918 110.321 62.4418 109.775 62.1418C109.235 61.8351 108.805 61.4118 108.485 60.8718C108.171 60.3251 108.015 59.7118 108.015 59.0318C108.015 58.3518 108.171 57.7418 108.485 57.2018C108.805 56.6618 109.235 56.2418 109.775 55.9418C110.321 55.6351 110.918 55.4818 111.565 55.4818C112.218 55.4818 112.815 55.6351 113.355 55.9418C113.901 56.2418 114.331 56.6618 114.645 57.2018C114.958 57.7418 115.115 58.3518 115.115 59.0318C115.115 59.7118 114.958 60.3251 114.645 60.8718C114.331 61.4118 113.901 61.8351 113.355 62.1418C112.815 62.4418 112.218 62.5918 111.565 62.5918ZM111.565 61.6018C112.025 61.6018 112.435 61.4984 112.795 61.2918C113.155 61.0784 113.435 60.7784 113.635 60.3918C113.841 59.9984 113.945 59.5451 113.945 59.0318C113.945 58.5184 113.841 58.0684 113.635 57.6818C113.435 57.2951 113.155 56.9984 112.795 56.7918C112.435 56.5851 112.025 56.4818 111.565 56.4818C111.105 56.4818 110.695 56.5851 110.335 56.7918C109.975 56.9984 109.691 57.2951 109.485 57.6818C109.285 58.0684 109.185 58.5184 109.185 59.0318C109.185 59.5451 109.285 59.9984 109.485 60.3918C109.691 60.7784 109.975 61.0784 110.335 61.2918C110.695 61.4984 111.105 61.6018 111.565 61.6018ZM120.066 62.5218L117.376 59.4118V62.5218H116.236V55.5718H117.376V58.7418L120.076 55.5718H121.506L118.486 59.0518L121.556 62.5218H120.066ZM123.704 55.5718V62.5218H122.564V55.5718H123.704ZM132.521 55.5718V62.5218H131.381V57.7618L129.261 62.5218H128.471L126.341 57.7618V62.5218H125.201V55.5718H126.431L128.871 61.0218L131.301 55.5718H132.521ZM135.16 61.6018H137.51V62.5218H134.02V55.5718H135.16V61.6018ZM139.603 55.5718V62.5218H138.463V55.5718H139.603ZM146.13 57.5718C145.95 57.2251 145.7 56.9651 145.38 56.7918C145.06 56.6118 144.69 56.5218 144.27 56.5218C143.81 56.5218 143.4 56.6251 143.04 56.8318C142.68 57.0384 142.396 57.3318 142.19 57.7118C141.99 58.0918 141.89 58.5318 141.89 59.0318C141.89 59.5318 141.99 59.9751 142.19 60.3618C142.396 60.7418 142.68 61.0351 143.04 61.2418C143.4 61.4484 143.81 61.5518 144.27 61.5518C144.89 61.5518 145.393 61.3784 145.78 61.0318C146.166 60.6851 146.403 60.2151 146.49 59.6218H143.88V58.7118H147.71V59.6018C147.636 60.1418 147.443 60.6384 147.13 61.0918C146.823 61.5451 146.42 61.9084 145.92 62.1818C145.426 62.4484 144.876 62.5818 144.27 62.5818C143.616 62.5818 143.02 62.4318 142.48 62.1318C141.94 61.8251 141.51 61.4018 141.19 60.8618C140.876 60.3218 140.72 59.7118 140.72 59.0318C140.72 58.3518 140.876 57.7418 141.19 57.2018C141.51 56.6618 141.94 56.2418 142.48 55.9418C143.026 55.6351 143.623 55.4818 144.27 55.4818C145.01 55.4818 145.666 55.6651 146.24 56.0318C146.82 56.3918 147.24 56.9051 147.5 57.5718H146.13ZM149.974 55.5718V62.5218H148.834V55.5718H149.974Z" fill="#081B45"/>
</svg>
