<svg xmlns="http://www.w3.org/2000/svg" width="21" height="21" viewBox="0 0 21 21" fill="none">
<g clip-path="url(#clip0_688_19075)">
<path d="M18.3982 18.2386L14.5232 14.3566M16.6706 9.16856C16.6706 11.1159 15.897 12.9834 14.5201 14.3604C13.1431 15.7374 11.2755 16.5109 9.32823 16.5109C7.3809 16.5109 5.51334 15.7374 4.13638 14.3604C2.75941 12.9834 1.98584 11.1159 1.98584 9.16856C1.98584 7.22124 2.75941 5.35367 4.13638 3.97671C5.51334 2.59974 7.3809 1.82617 9.32823 1.82617C11.2755 1.82617 13.1431 2.59974 14.5201 3.97671C15.897 5.35367 16.6706 7.22124 16.6706 9.16856V9.16856Z" stroke="#122067" stroke-width="2" stroke-linecap="round"/>
</g>
<defs>
<clipPath id="clip0_688_19075">
<rect width="20.7314" height="20.7314" fill="white" transform="translate(0.258301 0.0976562)"/>
</clipPath>
</defs>
</svg>