<svg width="32" height="32" viewBox="0 0 32 32" fill="none" xmlns="http://www.w3.org/2000/svg">
<g clip-path="url(#clip0_2_45)">
<path d="M16.5312 9.00195C16.2722 9.00195 16.0625 9.21161 16.0625 9.4707C16.0625 9.7298 16.2722 9.93945 16.5312 9.93945C19.8912 9.93945 22.625 12.6732 22.625 16.0332C22.625 16.2923 22.8346 16.5019 23.0937 16.5019C23.3528 16.5019 23.5625 16.2923 23.5625 16.0332C23.5625 12.1559 20.4085 9.00195 16.5312 9.00195Z" fill="white"/>
<path d="M16.5312 10.877C16.2722 10.877 16.0625 11.0866 16.0625 11.3457C16.0625 11.6048 16.2722 11.8145 16.5312 11.8145C18.8576 11.8145 20.75 13.7069 20.75 16.0332C20.75 16.2923 20.9596 16.5019 21.2187 16.5019C21.4778 16.5019 21.6875 16.2923 21.6875 16.0332C21.6875 13.19 19.3744 10.877 16.5312 10.877Z" fill="white"/>
<path d="M16.5312 12.752C16.2722 12.752 16.0625 12.9616 16.0625 13.2207C16.0625 13.4798 16.2722 13.6895 16.5312 13.6895C17.8235 13.6895 18.875 14.7409 18.875 16.0332C18.875 16.2923 19.0847 16.502 19.3437 16.502C19.6028 16.502 19.8125 16.2923 19.8125 16.0332C19.8125 14.2241 18.3403 12.752 16.5312 12.752Z" fill="white"/>
<path d="M16.5312 14.627C16.2722 14.627 16.0625 14.8366 16.0625 15.0957C16.0625 15.3548 16.2722 15.5645 16.5312 15.5645C16.7899 15.5645 17 15.7746 17 16.0332C17 16.2923 17.2097 16.5019 17.4687 16.5019C17.7278 16.5019 17.9375 16.2923 17.9375 16.0332C17.9375 15.2578 17.3067 14.627 16.5312 14.627Z" fill="white"/>
<path d="M13.7912 12.0646L11.1398 9.41325C10.5914 8.8644 9.69926 8.86531 9.15088 9.41325L8.82129 9.74281L13.4616 14.3832L13.7912 14.0536C14.0567 13.7881 14.2032 13.4347 14.2032 13.0589C14.2032 12.6835 14.0567 12.3301 13.7912 12.0646Z" fill="white"/>
<path d="M23.1512 21.445L20.4998 18.7936C19.9684 18.2622 19.0409 18.2631 18.5113 18.7936L18.1814 19.1233L22.8216 23.7636L23.1512 23.434C23.6996 22.8856 23.6996 21.9934 23.1512 21.445Z" fill="white"/>
<path d="M17.4517 19.7194C16.9296 19.9671 16.291 19.888 15.8595 19.4565L13.1284 16.7047C12.6969 16.2731 12.6178 15.6345 12.8655 15.1124L8.19466 10.4416C6.86372 12.4874 7.53816 17.7437 11.1399 21.345C14.6986 24.9037 20.0117 25.7463 22.1087 24.3763L17.4517 19.7194Z" fill="white"/>
</g>
<path opacity="0.1" fill-rule="evenodd" clip-rule="evenodd" d="M0 16C0 7.16344 7.16344 0 16 0C24.8366 0 32 7.16344 32 16C32 24.8366 24.8366 32 16 32C7.16344 32 0 24.8366 0 16Z" fill="white"/>
<defs>
<clipPath id="clip0_2_45">
<rect width="16" height="16" fill="white" transform="translate(7.5625 9)"/>
</clipPath>
</defs>
</svg>
