<svg width="32" height="32" viewBox="0 0 32 32" fill="none" xmlns="http://www.w3.org/2000/svg">
<path opacity="0.1" fill-rule="evenodd" clip-rule="evenodd" d="M0 16C0 7.16344 7.16344 0 16 0C24.8366 0 32 7.16344 32 16C32 24.8366 24.8366 32 16 32C7.16344 32 0 24.8366 0 16Z" fill="white"/>
<g clip-path="url(#clip0_2_163)">
<path fill-rule="evenodd" clip-rule="evenodd" d="M22.4808 9.57839C22.6868 9.49171 22.9122 9.46182 23.1336 9.49182C23.355 9.52182 23.5643 9.61061 23.7397 9.74896C23.9152 9.88731 24.0503 10.0701 24.1311 10.2785C24.2119 10.4868 24.2354 10.7129 24.1992 10.9334L22.3092 22.3976C22.1258 23.5034 20.9125 24.1376 19.8983 23.5867C19.05 23.1259 17.79 22.4159 16.6567 21.6751C16.09 21.3042 14.3542 20.1167 14.5675 19.2717C14.7508 18.5492 17.6675 15.8342 19.3342 14.2201C19.9883 13.5859 19.69 13.2201 18.9175 13.8034C16.9983 15.2517 13.9192 17.4542 12.9008 18.0742C12.0025 18.6209 11.5342 18.7142 10.9742 18.6209C9.9525 18.4509 9.005 18.1876 8.23167 17.8667C7.18667 17.4334 7.2375 15.9967 8.23083 15.5784L22.4808 9.57839Z" fill="white"/>
</g>
<defs>
<clipPath id="clip0_2_163">
<rect width="20" height="20" fill="white" transform="translate(6 5.88672)"/>
</clipPath>
</defs>
</svg>
