<svg width="14" height="17" viewBox="0 0 14 17" fill="none" xmlns="http://www.w3.org/2000/svg">
<path d="M11.9202 2.5874H9.17017V2.0874C9.17017 1.25896 8.4986 0.587402 7.67017 0.587402H5.67017C4.84173 0.587402 4.17017 1.25896 4.17017 2.0874V2.5874H1.42017C0.729822 2.5874 0.170166 3.14706 0.170166 3.8374V4.8374C0.170166 5.11356 0.39401 5.3374 0.670166 5.3374H12.6702C12.9463 5.3374 13.1702 5.11356 13.1702 4.8374V3.8374C13.1702 3.14706 12.6105 2.5874 11.9202 2.5874ZM5.17017 2.0874C5.17017 1.81178 5.39454 1.5874 5.67017 1.5874H7.67017C7.94579 1.5874 8.17017 1.81178 8.17017 2.0874V2.5874H5.17017V2.0874Z" fill="#6B0A0A"/>
<path d="M1.11913 6.3374C1.02992 6.3374 0.958822 6.41197 0.963072 6.50109L1.37557 15.1587C1.4137 15.9599 2.07182 16.5874 2.8737 16.5874H10.4668C11.2687 16.5874 11.9268 15.9599 11.9649 15.1587L12.3774 6.50109C12.3817 6.41197 12.3106 6.3374 12.2214 6.3374H1.11913ZM8.67026 7.5874C8.67026 7.31115 8.89401 7.0874 9.17026 7.0874C9.44651 7.0874 9.67026 7.31115 9.67026 7.5874V14.0874C9.67026 14.3637 9.44651 14.5874 9.17026 14.5874C8.89401 14.5874 8.67026 14.3637 8.67026 14.0874V7.5874ZM6.17026 7.5874C6.17026 7.31115 6.39401 7.0874 6.67026 7.0874C6.94651 7.0874 7.17026 7.31115 7.17026 7.5874V14.0874C7.17026 14.3637 6.94651 14.5874 6.67026 14.5874C6.39401 14.5874 6.17026 14.3637 6.17026 14.0874V7.5874ZM3.67026 7.5874C3.67026 7.31115 3.89401 7.0874 4.17026 7.0874C4.44651 7.0874 4.67026 7.31115 4.67026 7.5874V14.0874C4.67026 14.3637 4.44651 14.5874 4.17026 14.5874C3.89401 14.5874 3.67026 14.3637 3.67026 14.0874V7.5874Z" fill="#6B0A0A"/>
</svg>
